<svg width="26" height="20" viewBox="0 0 26 20" fill="none" xmlns="http://www.w3.org/2000/svg">
<path fill-rule="evenodd" clip-rule="evenodd" d="M17.8514 5.6052C17.8514 8.34649 15.666 10.5446 12.9405 10.5446C10.2151 10.5446 8.02969 8.34649 8.02969 5.6052C8.02969 2.86285 10.2151 0.66687 12.9405 0.66687C15.666 0.66687 17.8514 2.86285 17.8514 5.6052ZM12.9405 19.3335C8.93745 19.3335 5.51939 18.6989 5.51939 16.1604C5.51939 13.6208 8.91551 12.9631 12.9405 12.9631C16.9435 12.9631 20.3616 13.5977 20.3616 16.1373C20.3616 18.6758 16.9655 19.3335 12.9405 19.3335ZM19.95 5.69432C19.95 7.09176 19.5332 8.39359 18.8019 9.47582C18.7267 9.5872 18.7936 9.73745 18.9262 9.76056C19.109 9.79208 19.2981 9.80995 19.4903 9.8152C21.4072 9.86563 23.1277 8.62475 23.6031 6.75659C24.3071 3.98167 22.2398 1.49044 19.6073 1.49044C19.3211 1.49044 19.0474 1.52091 18.781 1.57555C18.7445 1.58395 18.7058 1.60077 18.6849 1.63334C18.6598 1.67326 18.6786 1.72685 18.7037 1.76152C19.4945 2.87633 19.95 4.23594 19.95 5.69432ZM23.1246 11.7649C24.4126 12.0181 25.2598 12.535 25.6108 13.2863C25.9075 13.903 25.9075 14.6186 25.6108 15.2343C25.0739 16.3995 23.3429 16.7736 22.6702 16.8702C22.5312 16.8913 22.4195 16.7704 22.4341 16.6307C22.7778 13.4019 20.044 11.871 19.3368 11.519C19.3065 11.5032 19.3002 11.4791 19.3033 11.4643C19.3054 11.4538 19.3179 11.437 19.3409 11.4339C20.8713 11.4055 22.5166 11.6157 23.1246 11.7649ZM6.50996 9.81503C6.70218 9.80977 6.89021 9.79296 7.07407 9.76039C7.20674 9.73728 7.27359 9.58702 7.19838 9.47565C6.46713 8.39342 6.05032 7.09159 6.05032 5.69415C6.05032 4.23577 6.50578 2.87615 7.29657 1.76135C7.32165 1.72668 7.33941 1.67309 7.31538 1.63317C7.29449 1.60164 7.25479 1.58378 7.21927 1.57538C6.95184 1.52074 6.67815 1.49027 6.39192 1.49027C3.75944 1.49027 1.6921 3.9815 2.39723 6.75642C2.87254 8.62458 4.59306 9.86546 6.50996 9.81503ZM6.69642 11.4637C6.69955 11.4795 6.69328 11.5026 6.66403 11.5194C5.95577 11.8714 3.22196 13.4023 3.56564 16.6301C3.58027 16.7709 3.46954 16.8906 3.3306 16.8707C2.65785 16.774 0.926891 16.4 0.389948 15.2347C0.0922261 14.618 0.0922261 13.9035 0.389948 13.2867C0.740945 12.5355 1.5871 12.0185 2.87514 11.7642C3.48416 11.6161 5.12842 11.406 6.65986 11.4343C6.68284 11.4375 6.69433 11.4543 6.69642 11.4637Z" fill="#FFCF00"/>
</svg>
