<svg width="24" height="24" viewBox="0 0 24 24" fill="none" xmlns="http://www.w3.org/2000/svg">
<path fill-rule="evenodd" clip-rule="evenodd" d="M12.3808 0.577919C12.5671 0.410689 12.8136 0.323031 13.0658 0.334275C18.3984 0.49391 22.8551 4.36508 23.6629 9.53905C23.668 9.56994 23.668 9.60144 23.6629 9.63234C23.6802 9.87715 23.5975 10.1187 23.4329 10.3035C23.2684 10.4883 23.0355 10.6011 22.7859 10.6171L13.8265 11.2079C13.5302 11.2342 13.2364 11.1367 13.0172 10.9394C12.798 10.7421 12.6737 10.4632 12.6749 10.1714L12.0727 1.37085V1.22573C12.0836 0.978218 12.1945 0.74515 12.3808 0.577919ZM11.7663 13.5091L19.5318 13.0116L19.5846 13.0323C19.9181 13.0378 20.2357 13.173 20.4675 13.4082C20.6993 13.6434 20.8264 13.9594 20.8207 14.2866C20.5147 18.7457 17.2455 22.4714 12.7966 23.4313C8.3476 24.3911 3.78686 22.3547 1.60241 18.4329C0.960082 17.3033 0.554181 16.0593 0.408525 14.7738C0.352031 14.3928 0.327297 14.008 0.334567 13.6232C0.349291 8.88157 3.72515 4.7889 8.44874 3.78607C9.02057 3.67904 9.59388 3.96455 9.84337 4.48058C9.90547 4.57422 9.95517 4.67523 9.99128 4.78119C10.0798 6.14808 10.1717 7.50204 10.2631 8.85028C10.3354 9.91496 10.4074 10.9761 10.4773 12.0372C10.4737 12.2872 10.513 12.536 10.5935 12.7732C10.7831 13.2399 11.2549 13.5359 11.7663 13.5091Z" fill="#75578E"/>
</svg>
