<svg width="24" height="24" viewBox="0 0 24 24" fill="none" xmlns="http://www.w3.org/2000/svg">
<path fill-rule="evenodd" clip-rule="evenodd" d="M17.1548 5.54831H17.3938C20.5344 5.54831 23.0834 8.17331 23.0834 11.3933V17.8333C23.0834 21.0533 20.5344 23.6666 17.3938 23.6666H6.60628C3.46563 23.6666 0.916687 21.0533 0.916687 17.8333V11.3933C0.916687 8.17331 3.46563 5.54831 6.60628 5.54831H6.84525C6.868 4.14831 7.40283 2.84165 8.37006 1.86165C9.34867 0.86998 10.6004 0.368313 12.0114 0.333313C14.8334 0.333313 17.1207 2.66665 17.1548 5.54831ZM9.56484 3.10998C8.9276 3.76331 8.57485 4.62665 8.55209 5.54831H15.4479C15.4137 3.63498 13.8889 2.08331 12.0114 2.08331C11.1352 2.08331 10.2248 2.44498 9.56484 3.10998ZM16.3241 10.04C16.802 10.04 17.1775 9.64334 17.1775 9.16501V7.81167C17.1775 7.33334 16.802 6.93667 16.3241 6.93667C15.8575 6.93667 15.4706 7.33334 15.4706 7.81167V9.16501C15.4706 9.64334 15.8575 10.04 16.3241 10.04ZM8.42692 9.16501C8.42692 9.64334 8.05141 10.04 7.57348 10.04C7.10694 10.04 6.72004 9.64334 6.72004 9.16501V7.81167C6.72004 7.33334 7.10694 6.93667 7.57348 6.93667C8.05141 6.93667 8.42692 7.33334 8.42692 7.81167V9.16501Z" fill="#0985B9"/>
</svg>
