<svg width="24" height="24" viewBox="0 0 24 24" fill="none" xmlns="http://www.w3.org/2000/svg">
<path fill-rule="evenodd" clip-rule="evenodd" d="M21.7989 8.6705L22.6392 9.5105C23.3045 10.1638 23.6663 11.0505 23.6663 11.9838C23.678 12.9172 23.3162 13.805 22.6626 14.4688C22.6548 14.4774 22.647 14.4849 22.6392 14.4924C22.6354 14.4962 22.6315 14.4999 22.6276 14.5038L21.7989 15.3322C21.4722 15.6588 21.2854 16.1022 21.2854 16.57V17.7705C21.2854 19.7072 19.7098 21.2833 17.7725 21.2833H16.5704C16.1035 21.2833 15.66 21.4688 15.3333 21.7955L14.493 22.6355C13.8044 23.325 12.9057 23.6622 12.0071 23.6622C11.1084 23.6622 10.2097 23.325 9.52115 22.6483L8.66918 21.7955C8.34239 21.4688 7.8989 21.2833 7.43206 21.2833H6.22996C4.29259 21.2833 2.71702 19.7072 2.71702 17.7705V16.57C2.71702 16.1022 2.53029 15.6588 2.2035 15.3205L1.3632 14.4922C-0.00229815 13.1283 -0.0139691 10.8988 1.35153 9.52334L2.2035 8.6705C2.53029 8.34384 2.71702 7.9005 2.71702 7.42217V6.23217C2.71702 4.2955 4.29259 2.72167 6.22996 2.72167H7.43206C7.8989 2.72167 8.34239 2.53384 8.66918 2.20717L9.50948 1.36717C10.875 -0.00833026 13.1041 -0.00833017 14.4813 1.35667L15.3333 2.20717C15.66 2.53384 16.1035 2.72167 16.5704 2.72167H17.7725C19.7098 2.72167 21.2854 4.2955 21.2854 6.23217V7.435C21.2854 7.9005 21.4722 8.34384 21.7989 8.6705ZM8.99599 16.0205C9.27609 16.0205 9.53285 15.9155 9.71959 15.7172L15.7184 9.72169C16.1152 9.32503 16.1152 8.67053 15.7184 8.27386C15.3216 7.87836 14.6797 7.87836 14.2829 8.27386L8.28407 14.2705C7.88726 14.6672 7.88726 15.3205 8.28407 15.7172C8.4708 15.9155 8.72756 16.0205 8.99599 16.0205ZM13.9794 14.9938C13.9794 15.5655 14.4346 16.0205 15.0065 16.0205C15.5667 16.0205 16.0218 15.5655 16.0218 14.9938C16.0218 14.435 15.5667 13.9788 15.0065 13.9788C14.4346 13.9788 13.9794 14.435 13.9794 14.9938ZM9.0076 7.98214C9.5678 7.98214 10.023 8.43714 10.023 8.99714C10.023 9.56997 9.5678 10.0238 9.0076 10.0238C8.4474 10.0238 7.98056 9.56997 7.98056 8.99714C7.98056 8.43714 8.4474 7.98214 9.0076 7.98214Z" fill="#51A690"/>
</svg>
