<svg width="24" height="24" viewBox="0 0 24 24" fill="none" xmlns="http://www.w3.org/2000/svg">
<path fill-rule="evenodd" clip-rule="evenodd" d="M6.55213 0.334106H17.4476C21.4155 0.334106 23.6555 2.58461 23.6671 6.55244V17.4491C23.6671 21.4158 21.4155 23.6674 17.4476 23.6674H6.55213C2.5843 23.6674 0.333801 21.4158 0.333801 17.4491V6.55244C0.333801 2.58461 2.5843 0.334106 6.55213 0.334106ZM12.0576 18.8374C12.5605 18.8374 12.9793 18.4641 13.026 17.9624V6.0741C13.0726 5.71243 12.8988 5.3496 12.5838 5.15243C12.256 4.9541 11.8593 4.9541 11.5455 5.15243C11.2293 5.3496 11.0555 5.71243 11.0893 6.0741V17.9624C11.1488 18.4641 11.5676 18.8374 12.0576 18.8374ZM17.4255 18.8375C17.9155 18.8375 18.3343 18.4641 18.3938 17.9625V14.1358C18.4276 13.7613 18.2538 13.4125 17.9376 13.2141C17.6238 13.0158 17.2271 13.0158 16.9005 13.2141C16.5843 13.4125 16.4105 13.7613 16.4571 14.1358V17.9625C16.5038 18.4641 16.9226 18.8375 17.4255 18.8375ZM7.58929 17.9625C7.54263 18.4641 7.12379 18.8375 6.62096 18.8375C6.11929 18.8375 5.69929 18.4641 5.65379 17.9625V9.90081C5.61879 9.53798 5.79263 9.17748 6.10879 8.97914C6.42263 8.78081 6.82046 8.78081 7.13546 8.97914C7.44929 9.17748 7.62546 9.53798 7.58929 9.90081V17.9625Z" fill="#FEAD86"/>
</svg>
