<svg width="24" height="24" viewBox="0 0 24 24" fill="none" xmlns="http://www.w3.org/2000/svg">
<path fill-rule="evenodd" clip-rule="evenodd" d="M0.333313 10.4482C0.333313 4.86191 4.81371 0.333313 10.3406 0.333313C12.9946 0.333313 15.54 1.39899 17.4167 3.2959C19.2935 5.19282 20.3478 7.76558 20.3478 10.4482C20.3478 16.0345 15.8674 20.5631 10.3406 20.5631C4.81371 20.5631 0.333313 16.0345 0.333313 10.4482ZM20.1822 18.5966L23.1627 21.0024H23.2144C23.8174 21.6119 23.8174 22.6001 23.2144 23.2095C22.6114 23.819 21.6338 23.819 21.0308 23.2095L18.5575 20.3748C18.3236 20.1393 18.1922 19.8194 18.1922 19.4857C18.1922 19.1521 18.3236 18.8321 18.5575 18.5966C19.0084 18.1487 19.7313 18.1487 20.1822 18.5966Z" fill="#00A198"/>
</svg>
